<?xml version="1.0" encoding="utf-8"?>
<!-- Generator: Adobe Illustrator 23.0.1, SVG Export Plug-In . SVG Version: 6.00 Build 0)  -->
<svg version="1.1" id="Capa_1" xmlns="http://www.w3.org/2000/svg" xmlns:xlink="http://www.w3.org/1999/xlink" x="0px" y="0px"
	 viewBox="0 0 100 100" style="enable-background:new 0 0 100 100;" xml:space="preserve">
<g>
	<path fill="#495762" d="M43.88,94.3c-0.02-1.08-0.49-2.47,0.01-3.19c14.02-20.18,28.13-40.3,42.24-60.41c0.23-0.33,0.67-0.53,1.01-0.79
		c10.73,16,8.29,46.6-17.98,59.76c-4.09,2.05-8.68,3.12-13.03,4.64C52.04,94.3,47.96,94.3,43.88,94.3z"/>
	<path  fill="#495762" d="M54.37,7.7c4.8,1.52,9.67,2.86,14.36,4.65c2.44,0.93,4.58,2.66,6.51,4.82c-16.83,0-33.66,0-51.41,0
		c5.75-4.9,11.76-7.02,18.11-8.44c1.24-0.28,2.46-0.69,3.69-1.04C48.54,7.7,51.46,7.7,54.37,7.7z"/>
	<path  fill="#495762" d="M82.75,24.37C66.84,47.1,51.25,69.38,35.73,91.54C18.72,86.43,6.71,69.05,6.96,50.56c0.12-8.71,2.5-16.68,7.52-23.75
		c1.01-1.42,3.16-2.87,4.79-2.89c20.54-0.19,41.09-0.12,61.64-0.1C81.3,23.84,81.69,24.05,82.75,24.37z"/>
</g>
</svg>
